<svg xmlns="http://www.w3.org/2000/svg" viewBox="0 0 64 80" x="0px" y="0px"><title>12 Agreement Mail</title><g data-name="12 Agreement Mail"><path d="M58.483,37.041,50,27.616V24h0a1.009,1.009,0,0,0-.093-.4c-.011-.024-.019-.047-.031-.069a.989.989,0,0,0-.25-.3c-.008-.006-.011-.017-.019-.023L45,19.685V5a2,2,0,0,0-2-2H21a2,2,0,0,0-2,2V19.685l-4.607,3.52c-.008.006-.011.017-.019.023a.989.989,0,0,0-.25.3c-.012.022-.02.045-.031.069A1.009,1.009,0,0,0,14,24h0v3.616L5.514,37.045A2,2,0,0,0,5,38.384V59a2,2,0,0,0,2,2h7a2,2,0,0,0,2-2l.063-3.146A4.007,4.007,0,0,0,19,52V49H45v3a4.024,4.024,0,0,0,3,3.87V59a2,2,0,0,0,2,2h7a2,2,0,0,0,2-2V38.38A2.01,2.01,0,0,0,58.483,37.041Zm-10.968-2c-.062-.009-.123-.016-.186-.021a2.919,2.919,0,0,0-.386-.009c-.054,0-.108,0-.163.008a2.937,2.937,0,0,0-.442.075c-.036.008-.073.013-.109.023a3.086,3.086,0,0,0-.537.2l-.006,0h0c-.022.011-.041.026-.063.038A3.137,3.137,0,0,0,44,38.15v.13a3.108,3.108,0,0,0,.67,1.915L48,44.352V45.88L35.5,35.587l1.474-1.127,7.631-5.835h0L48,26.026v9.121c-.039-.012-.081-.015-.121-.026A3.023,3.023,0,0,0,47.515,35.043ZM18,47h-.211L30.746,36.332v0L32,35.3l1.253,1.033v0L46.211,47H18Zm1.337-6.812A3.109,3.109,0,0,0,20,38.28v-.13a3.129,3.129,0,0,0-1.687-2.827,3.1,3.1,0,0,0-.53-.2c-.058-.017-.117-.025-.176-.038a3.121,3.121,0,0,0-.371-.062c-.026,0-.052-.011-.078-.013-.043,0-.085,0-.128,0a3.092,3.092,0,0,0-.347.008c-.07.006-.138.013-.208.024a2.928,2.928,0,0,0-.344.074c-.043.012-.088.015-.131.028V26.026l3.392,2.6h0l7.631,5.835L28.5,35.587,16,45.88V44.352ZM47.354,24,45,25.8V22.2ZM21,5H43V27.331l-8.4,6.423-.69.528-1.279-1.053a1,1,0,0,0-1.272,0l-1.279,1.053-.69-.528L21,27.331V5ZM19,25.8,16.646,24,19,22.2ZM17,52a2,2,0,0,1-1.467,1.927A2.023,2.023,0,0,0,14,55.869V59H7V38.384l7-7.778V36.76L8.247,43.342a1,1,0,1,0,1.506,1.316l6-6.866.38-.43c.008-.008.019-.013.026-.021a1.082,1.082,0,0,1,.231-.188,1.151,1.151,0,0,1,.172-.072,1.173,1.173,0,0,1,.15-.055,1.131,1.131,0,0,1,.176-.012,1.016,1.016,0,0,1,.183,0,1.179,1.179,0,0,1,.289.085c.024.01.05.011.074.023A1.164,1.164,0,0,1,18,38.163v.117a1.107,1.107,0,0,1-.23.665l-3.55,4.43A1,1,0,0,0,14,44v4a2,2,0,0,1-2,2,1,1,0,0,0,0,2,4,4,0,0,0,3.858-3H17Zm40,7H50V55.87a2.033,2.033,0,0,0-1.534-1.944A2,2,0,0,1,47,52V49h1.142A4,4,0,0,0,52,52a1,1,0,0,0,0-2,2,2,0,0,1-2-2V44a1,1,0,0,0-.22-.625l-3.543-4.422A1.11,1.11,0,0,1,46,38.28v-.12a1.055,1.055,0,0,1,.92-1.15,1.069,1.069,0,0,1,.951.352l6.376,7.3a1,1,0,0,0,1.506-1.316L50,36.755V30.606l7,7.779Z"/><path d="M29.293,17.707A1,1,0,0,0,30,18h.033a1,1,0,0,0,.719-.341l7-8a1,1,0,1,0-1.5-1.316l-6.3,7.2-2.244-2.244a1,1,0,0,0-1.414,1.414Z"/><path d="M27,23H37a1,1,0,0,0,0-2H27a1,1,0,0,0,0,2Z"/><path d="M27,28H37a1,1,0,0,0,0-2H27a1,1,0,0,0,0,2Z"/></g><text x="0" y="79" fill="#000000" font-size="5px" font-weight="bold" font-family="'Helvetica Neue', Helvetica, Arial-Unicode, Arial, Sans-serif">Created by Berkah Icon</text><text x="0" y="84" fill="#000000" font-size="5px" font-weight="bold" font-family="'Helvetica Neue', Helvetica, Arial-Unicode, Arial, Sans-serif">from the Noun Project</text></svg>